<svg width="300" height="400" viewBox="0 0 300 400" fill="none" xmlns="http://www.w3.org/2000/svg">
<g clip-path="url(#clip0_20_2)">
<rect width="300" height="400" fill="white"/>
<path d="M80.8766 44.0866C69.4813 65.2 -6.42575 88.725 -32.6905 74.6495C-58.9553 60.574 -27.1463 21.9305 -15.751 0.816998C-4.35574 -20.2965 20.007 -41.3807 46.2718 -27.3053C72.5366 -13.2298 92.2719 22.9731 80.8766 44.0866Z" fill="#5B407F"/>
<path d="M76.5795 38.2983C65.1842 59.4118 -10.7229 82.9367 -36.9877 68.8612C-63.2524 54.7858 -31.4435 16.1422 -20.0482 -4.97126C-8.65286 -26.0847 15.7099 -47.169 41.9747 -33.0935C68.2395 -19.0181 87.9748 17.1849 76.5795 38.2983Z" fill="#2E2040"/>
<path d="M351.647 385.567C340.252 406.68 264.345 430.205 238.08 416.129C211.815 402.054 243.624 363.41 255.02 342.297C266.415 321.184 290.778 300.099 317.043 314.175C343.307 328.25 363.043 364.453 351.647 385.567Z" fill="#5B407F"/>
<path d="M358.35 388.778C346.955 409.892 271.048 433.417 244.783 419.341C218.518 405.266 250.327 366.622 261.723 345.509C273.118 324.395 297.481 303.311 323.746 317.386C350.01 331.462 369.746 367.665 358.35 388.778Z" fill="#2E2040"/>
</g>
<defs>
<clipPath id="clip0_20_2">
<rect width="300" height="400" fill="white"/>
</clipPath>
</defs>
</svg>
